# xmcd
#
# Track frame offsets: 
#        150
#        16520
#        31275
#        48230
#        62135
#        76660
#        89100
#        103382
#        121767
#        136595
#
# Disc length: 2017 seconds
#
# Revision: 0
# Processed by: cddbd v1.4PL0 Copyright (c) Steve Scherf et al.
# Submitted via: ExactAudioCopy v0.90b3
#
DISCID=7307df0a
DTITLE=Louise Mandrell - Too Hot To Sleep
DYEAR=1900
DGENRE=Country
TTITLE0=Too Hot Too Sleep
TTITLE1=Surprise Me
TTITLE2=A New Girl In Town
TTITLE3=I'm Leaving
TTITLE4=Lady Killer
TTITLE5=Runaway Heart
TTITLE6=We Put On Quite A Show
TTITLE7=Fool With Me
TTITLE8=There's More To Love
TTITLE9=Tender Hearts
EXTD=
EXTT0=
EXTT1=
EXTT2=
EXTT3=
EXTT4=
EXTT5=
EXTT6=
EXTT7=
EXTT8=
EXTT9=
PLAYORDER=
